<svg xmlns="http://www.w3.org/2000/svg" xmlns:xlink="http://www.w3.org/1999/xlink" width="1254" height="448" viewBox="0 0 1254 448"><defs><clipPath id="a"><rect width="1254" height="448" transform="translate(946 -12734)" fill="#fff"/></clipPath><clipPath id="b"><rect width="1596.144" height="447.356" fill="none"/></clipPath></defs><g transform="translate(-946 12734)" clip-path="url(#a)"><g transform="translate(604 -12733.82)"><g clip-path="url(#b)"><path d="M522.483,74.148a127.354,127.354,0,0,0,28.355,9.9c20.245,4.765,41.057,5.989,61.737,7.416,25.7,1.772,51.38,2.778,77.143,2.245,27.389-.565,55.216-2.029,82.3-6.329,22.621-3.591,49.906-8.636,68.619-22.705a3.784,3.784,0,0,1,.657-.974c25.153-26.568-22.15-45.589-42.655-51.281-28.422-7.887-59.007-7.045-88.276-7.917-50.28-1.5-101.271.389-150.2,13a279.907,279.907,0,0,0-38.579,12.769c-8.17,3.429-21.043,9.381-22.69,19.4-1.91,11.617,15.1,20.183,23.595,24.479M602.9,27.794c7.523-10.217,25.587-13.034,37.092-14.806C657.451,10.3,675,10.812,692.564,11.806c14.664.83,30.087,1.09,42.814,9.451,8.72,5.726,11.639,14.194,3.967,22.145a3.712,3.712,0,0,1-1.306.9c-8.244,9.307-22.6,11.52-34.287,12.865a285.649,285.649,0,0,1-51.276,1.167c-13.014-.85-26.9-1.447-38.824-7.315-8.886-4.374-18.062-13.3-10.752-23.226" transform="translate(737.103 6.013)" fill="#cec2af"/><path d="M550.806,31.309c16.369,7.669,39.293,6.628,56.928,6.495,18.389-.139,40.94-.335,57.81-8.918a3.665,3.665,0,0,1,.255-.382c7.174-8.777-13.755-14.8-17.487-15.621a93.482,93.482,0,0,0-16.994-1.7c-11.272-.4-22.584-.634-33.853-.03a177.5,177.5,0,0,0-31.715,4.421,100.818,100.818,0,0,0-15.145,4.659c-2.983,1.232-7.315,4.23-4.629,8.336.734,1.12,3.635,2.183,4.829,2.743" transform="translate(805.67 15.935)" fill="#605a51"/><path d="M1221.826,268.9c.225-18.983,1.6-38.108,1.4-57.047-.121-11.6-.325-23.015-3.385-34.282a75.935,75.935,0,0,1-2.408-29.371c2.5-24.244,5.855-48.379,6.705-72.762a228.544,228.544,0,0,0-1.244-35.276c-.079-.652-.166-1.3-.248-1.948-10.672,31.846-38.234,54.22-72.648,59.894-23.05,3.8-46.672,1.115-69.9,2.8a316.783,316.783,0,0,0-77.309,15.779c-20.666,6.916-39.9,19.043-60.969,24.442-18.047,4.626-36.294,1.824-54.408-.716-19.957-2.8-40.145-7.468-60.382-4.383-9.087,1.385-18.245,7.791-27.436,6.624-7.451-.944-13.547-6.569-20.624-8.782-21.959-6.861-48.8-5.617-71.082-1.44-21.253,3.982-41.272,12.61-62.422,16.738-20.252,3.95-42.184,4.1-62.726,2.852a161.558,161.558,0,0,1-31.437-4.753c-10.135-2.671-18.674-8.024-28.479-11.46a150.639,150.639,0,0,0-67.918-7.582c-20.862,2.607-38.74,14.223-59.262,17.858-21.427,3.794-40.385-5.821-61.309-7.753-20.143-1.858-38.861,9.409-58.891,9.894-21.811.53-43.919-8.418-65.2-12.38-23.2-4.322-46.62-5.318-70.17-4.517C93.835,132.9,48.85,143.884,3.71,153.068a37.942,37.942,0,0,1,9.359,21.62c1.427,13.3-6.653,24.13-.488,37.243,4.609,9.79,8.784,18.29,9.778,29.264,1.046,11.567,2.039,23.186,5.357,34.389,3.662,12.36,11.126,23.1,22.361,29.74,9.52,5.627,19.538,9.907,28.323,16.823,6.891,5.427,12.769,12.2,12.427,21.5-.3,8.123-5.409,17.125-12.288,21.9,20.849-1.772,41.736-3.543,62.645-1.583,21.375,2.007,40.831,9.51,61.537,14.313,42.249,9.8,81.546-3.677,122.516-12.553a229,229,0,0,1,52.966-5.575c20.173.362,40.489,2.339,60.556-.711,20.25-3.078,39.617-11.039,59.612-15.39,18.2-3.962,36.968-4.725,55.523-5.248,19.1-.54,38.006,1.13,56.906,3.8,19.757,2.788,39.335,7.122,59.351,7.612,37.875.927,73.746-14.248,111.477-15.128,38.011-.887,73.114,19.947,110.927,17.026,38.725-2.991,75.584-22.259,112.721-32.429,17.142-4.693,34.793-8.214,52.587-8.968,19.546-.828,38.738,2.681,58.135,4.374,19.449,1.695,37.731.429,55.612-7.872,15.561-7.226,29.914-16.681,45.123-24.571a4.279,4.279,0,0,1,4.128-.03,79.2,79.2,0,0,1,.966-13.71" transform="translate(5.483 56.476)" fill="#f2e9da"/><path d="M128.129,182.071c-3.182-4.9-6.621-9.85-10.992-13.775-2.567-2.3-5.992-4.582-9.3-3.534a12.545,12.545,0,0,0-5.308,3.977,40.1,40.1,0,0,0-5.072,7.744,104.111,104.111,0,0,0-7.114,17.779c14.977,1.6,29.646.619,44.221-1.621-2.054-3.578-4.185-7.112-6.433-10.571" transform="translate(133.518 243.12)" fill="#cec2af"/><path d="M224.982,189.168c-3.338-6.5-6.524-13.086-10.157-19.429-3.068-5.355-6.465-10.739-11.047-14.942-3.888-3.563-8.732-5.9-14.1-5.387a26.049,26.049,0,0,0-15.475,7.662c-4.807,4.673-8.318,10.551-11.133,16.59a117.451,117.451,0,0,0-7.218,20.988c-.109.431-.206.867-.31,1.3,19.6.436,39.325,2.213,58.814-.751,4.193-.637,8.348-1.492,12.479-2.473-.622-1.184-1.244-2.369-1.853-3.556" transform="translate(229.882 220.714)" fill="#cec2af"/><path d="M326.446,179.011c-3.9-5.382-7.741-10.816-12.006-15.918-3.551-4.255-7.513-8.809-12.509-11.4a15.437,15.437,0,0,0-12.784-.235c-4.376,1.856-7.761,5.516-10.365,9.394a65.829,65.829,0,0,0-7.166,14.915c-.984,2.783-1.846,5.608-2.624,8.455,3.021.233,6.049.419,9.087.493,16.463.4,32.548-2.238,48.57-5.422-.067-.094-.136-.186-.2-.28" transform="translate(397.553 221.968)" fill="#cec2af"/><path d="M410.664,173.625c-5.915-7.119-12.5-14.516-20.983-18.582a23.771,23.771,0,0,0-12.281-2.394,24.08,24.08,0,0,0-11.676,4.78c-7.825,5.588-13.47,14.164-17.306,22.856,11.411,2.322,22.916,3.712,34.684,2.805a175.421,175.421,0,0,0,30.793-5.451c-1.066-1.353-2.136-2.7-3.231-4.014" transform="translate(514.938 225.49)" fill="#cec2af"/><path d="M150.6,99.968a117.13,117.13,0,0,0,8.452,21.746c2.867,5.4,6.532,10.967,11.872,14.213,4.983,3.026,10.727,2.929,15.968.567a33.872,33.872,0,0,0,16.022-15.779c3.9-7.555,5.831-16.02,7.327-24.333,1.09-6.046,1.913-12.134,2.817-18.21-9.243,3.538-18.473,7.114-28.31,8.859-13.381,2.369-25.8-.491-38.334-3.442,1.227,5.5,2.582,10.965,4.185,16.379" transform="translate(216.388 115.533)" fill="#cec2af"/><path d="M315.488,83.085A26.9,26.9,0,0,0,335.807,93.22a24.68,24.68,0,0,0,11.255-2.044,23.861,23.861,0,0,0,5.878-4.024,21.521,21.521,0,0,1-7.136.406c-7.454-.947-13.544-6.571-20.621-8.782a99.932,99.932,0,0,0-14.421-3.283,37.735,37.735,0,0,0,4.728,7.592" transform="translate(459.282 111.573)" fill="#cec2af"/><path d="M374.445,96.68a19.63,19.63,0,0,0,15.861,6.049c6.571-.545,12.727-3.838,18.054-7.53a102.1,102.1,0,0,0,18.034-16.55c.719-.813,1.4-1.658,2.1-2.485a159.091,159.091,0,0,1-24.452,8.881c-12.1,3.1-24.284,2.86-36.458,1.6a37.321,37.321,0,0,0,6.859,10.036" transform="translate(543.267 112.564)" fill="#cec2af"/><path d="M95.105,89.656c4.255,8.864,10.633,17.613,20.758,19.888,10.747,2.416,21.223-2.84,29.606-9.126a105.415,105.415,0,0,0,14.246-13.066A71.9,71.9,0,0,1,147.129,88.9c-18.884.461-37.992-6.182-56.593-10.546a107.314,107.314,0,0,0,4.569,11.3" transform="translate(133.806 115.802)" fill="#cec2af"/><path d="M231.127,86.006c4.433,8.5,9.894,17.35,17.868,22.965,3.472,2.443,7.726,4.445,12.048,4.5a27.831,27.831,0,0,0,13.257-3.491c9.31-4.919,16.669-13.128,23.119-21.276,1.17-1.477,2.287-2.991,3.407-4.5-17.182,2.255-35.149,2.218-52.17,1.182A182.341,182.341,0,0,1,229.764,83.3c.448.9.895,1.809,1.363,2.706" transform="translate(339.575 123.112)" fill="#cec2af"/><path d="M534.363,75.434a228.8,228.8,0,0,0-1.244-35.273c-.079-.652-.166-1.3-.248-1.948-9.592,28.623-32.85,49.549-62.441,57.619,1.142,2.309,2.19,4.671,3.125,7.079a133.419,133.419,0,0,1,7.171,29.19c.793,5.481,1.39,10.992,1.878,16.513a63.317,63.317,0,0,1,.374,8.167c-.111,2.656-.339,5.305-.612,7.949-1.224,11.812-3.42,23.56-3.818,35.449-.161,4.763-.258,10.05,1.521,14.558,1.995,5.057,6.346,8.6,9.669,12.732,2.949,3.667,4.557,7.57,3.826,12.3-.837,5.434-3.117,10.61-4.775,15.824a48.494,48.494,0,0,0-2.012,8.093c-.394,2.919.047,5.88.144,8.809a35.906,35.906,0,0,1-1.321,12.548c-1.546,4.693-4.148,9.03-6.485,13.356a87.9,87.9,0,0,0-5.37,12.063c2.706-.944,5.4-2.012,8.086-3.256,15.559-7.226,29.914-16.684,45.123-24.571a4.273,4.273,0,0,1,4.128-.032,79.444,79.444,0,0,1,.964-13.71c.228-18.983,1.606-38.108,1.4-57.047-.121-11.6-.322-23.015-3.382-34.282a75.923,75.923,0,0,1-2.409-29.368c2.5-24.247,5.855-48.379,6.705-72.764" transform="translate(695.263 56.476)" fill="#cec2af"/><path d="M846.562,33.3C826.3,53.69,792.184,59.892,764.9,63.27a750.476,750.476,0,0,1-109.23,5.38c-27.339-.627-55.094-2.143-82.228-5.719-23.855-3.144-48.4-8.973-68.163-23.392a62.536,62.536,0,0,1-7.756-6.571c1.056,8.014,2.884,15.913,4.146,23.959a231.1,231.1,0,0,1,2.758,34.55c.134,24.331-3.375,48.389-5.833,72.534-1.224,12.025,1.987,22.118,3.434,33.844,1.3,10.549.449,21.293.295,31.886-.223,15.309.312,31.311-.506,47a5.823,5.823,0,0,1,1.73,5.214c-1.393,8.93-3.157,19.613,3.068,27.225,4.421,5.407,11.626,9.572,17.677,12.913,13.2,7.283,27.934,11.312,42.7,13.951,30.778,5.5,63.145,6.881,94.34,7.516,36.817.748,74.419-.711,110.8-6.7a251.389,251.389,0,0,0,49.207-13.529c17.673-6.819,34.567-20.428,30.816-41.622a4.17,4.17,0,0,1,1.9-4.349c-.9-20.141-1.288-40.217-3.613-60.365-2.688-23.28-7.895-46.778-7.416-70.3.483-23.865,4.6-47.745,6.3-71.56,1.105-15.49,1.762-31,2.126-46.523a42.787,42.787,0,0,1-3.372,3.774,3.494,3.494,0,0,1-1.507.9" transform="translate(735.301 42.3)" fill="#f2e9da"/><path d="M699.849,340.808c-2.656-5.474-8.348-8.651-13.839-10.675-7.419-2.733-15.376-3.937-23.208-4.74-16.746-1.72-33.588-1.194-50.374-2.161-3.14-.181-6.282-.429-9.394-.895a58,58,0,0,1-10.187-2.7,155.349,155.349,0,0,1-32.513-15.678c-8.933-5.66-18.592-12.632-23.4-22.361-1.37-2.773-2.552-6.286-.858-9.188,1.462-2.5,4.458-3.67,7.072-4.525,7.384-2.413,15.921-3.249,21.7-8.992,4.373-4.349,8.3-9.2,8.378-15.675.069-5.776-2.951-11.022-6.881-15.058a35.846,35.846,0,0,0-13.881-8.784c-4.168-1.5-8.467-2.632-12.555-4.341-3.335-1.4-6.693-3.251-8.705-6.366-2.364-3.662-2.024-8.234-.85-12.246a29.837,29.837,0,0,1,2.277-6.21,31.279,31.279,0,0,1,3.7-5.137c3.09-3.608,6.623-6.824,9.523-10.6,3.065-3.992,5.228-8.6,5.154-13.718a11.67,11.67,0,0,0-2.476-6.913,58.91,58.91,0,0,1-4.334-6.376c-4.547-8.762,2.983-16.126,9.431-21.137a123.806,123.806,0,0,0,9.919-7.934c2.738-2.617,5.226-5.853,5.447-9.78.456-8.051-7.268-11.792-13.066-15.45-2.669-1.683-5.5-3.638-6.973-6.527-1.678-3.293-1.1-6.98.273-10.273a16.206,16.206,0,0,1,3.5-5.573,30.289,30.289,0,0,1,4.874-3.739,100.6,100.6,0,0,1,13.735-7.013c-23.188-3.209-46.877-9.1-66.059-23.1a62.583,62.583,0,0,1-7.756-6.574c1.056,8.014,2.884,15.913,4.146,23.959a231.418,231.418,0,0,1,2.758,34.55c.131,24.331-3.377,48.389-5.836,72.534-1.224,12.025,1.99,22.118,3.434,33.846,1.3,10.546.451,21.29.3,31.884-.223,15.311.312,31.311-.506,47a5.822,5.822,0,0,1,1.73,5.214c-1.393,8.93-3.157,19.613,3.068,27.225,4.418,5.407,11.624,9.572,17.677,12.912,13.2,7.283,27.934,11.312,42.7,13.951,30.776,5.5,63.143,6.881,94.34,7.516,12.776.26,25.649.23,38.529-.139l-.008-.022" transform="translate(735.301 44.892)" fill="#cec2af"/><path d="M705.228,277.366c-.9-20.141-1.288-40.217-3.615-60.362-2.686-23.283-7.892-46.781-7.416-70.3.486-23.865,4.6-47.742,6.3-71.56,1.1-15.49,1.762-31,2.126-46.523a42.436,42.436,0,0,1-3.372,3.774,3.485,3.485,0,0,1-1.507.9c-14.811,14.9-37.008,22.212-58.536,26.392a42.946,42.946,0,0,1,5.067.629,6.432,6.432,0,0,1,4.877,3.254c1.279,2.523,1.559,5.6,2.146,8.328,2.106,9.8,5.816,19.623,6.2,29.713a25.8,25.8,0,0,1-2.6,12.724,33.968,33.968,0,0,1-9.357,10.831c8.061,3.058,16.632,6.19,23.144,11.919,2.443,2.151,4.626,4.919,5.241,8.192.7,3.764-.736,7.421-2.932,10.437-5.486,7.53-13.624,11.76-22.557,13.767-9.154,2.057-18.592,2.233-27.877,3.35-7.843.944-16.166,2.644-22.339,7.838a44.518,44.518,0,0,0,10.8,1.165c5.756.1,11.515-.238,17.256-.6,10.948-.694,21.937-1.725,32.917-1.373A61.832,61.832,0,0,1,672.7,181.5c3.325.862,6.76,2.243,9.176,4.775,7.714,8.085-2.51,18.357-7.008,25.213a19.473,19.473,0,0,0-3.286,6.911c-.488,2.7.9,4.376,3.251,5.553,5.1,2.547,11.6,2.632,15.492,7.3a1.082,1.082,0,0,1,0,1.492,22.841,22.841,0,0,1-3.073,2.448c-6.177,4.245-13.1,7.293-19.251,11.584-2.413,1.685-5.276,3.734-6.547,6.5-1,2.161.919,4.143,2.225,5.766,4.393,5.459,9.956,10.172,13.534,16.255,2.627,4.465,3.085,10.224,2.324,15.257-1.9,12.548-10.967,23.446-19.593,32.181-2.575,2.609-5.253,5.122-8.006,7.553,6.983-2.044,13.874-4.364,20.577-6.948,17.673-6.819,34.565-20.431,30.816-41.622a4.176,4.176,0,0,1,1.9-4.351" transform="translate(884.122 42.3)" fill="#cec2af"/><path d="M642.943,21.385q0,1.1,0,2.2c.037-.736.03-1.469,0-2.2" transform="translate(950.225 31.606)" fill="#1c1c1c"/><path d="M501.621,62.988a86.1,86.1,0,0,0,.835,12.281,62.576,62.576,0,0,0,7.758,6.569c19.762,14.419,44.308,20.25,68.16,23.392,27.133,3.578,54.891,5.09,82.23,5.719a750.112,750.112,0,0,0,109.227-5.38c27.287-3.377,61.4-9.58,81.665-29.973a3.491,3.491,0,0,0,1.509-.9,43.12,43.12,0,0,0,3.37-3.771c.191-8.073.325-16.149.35-24.219a2.948,2.948,0,0,1,3.843-2.82c-2.468-5.466-6.888-10.61-13-15.091C824.691,12.012,795.8,5.723,768,3.7,707.7-.672,645.554-3.125,585.8,7.83a313.244,313.244,0,0,0-43.386,11.185c-11.763,3.957-24.574,8.105-34.57,15.7-7.136,5.429-13.643,13.264-13.663,22.69a21.31,21.31,0,0,0,1.088,6.713c.02-.377.017-.751.042-1.13.26-4.019,6.356-4.094,6.309,0m4-7.307c1.645-10.013,14.521-15.965,22.69-19.4a280.576,280.576,0,0,1,38.579-12.769c48.932-12.608,99.923-14.5,150.2-13,29.269.87,59.854.03,88.276,7.919,20.5,5.689,67.808,24.71,42.655,51.278a3.765,3.765,0,0,0-.657.974c-18.713,14.07-46,19.115-68.619,22.705-27.081,4.3-54.908,5.766-82.3,6.329-25.763.535-51.447-.476-77.143-2.245-20.681-1.425-41.493-2.651-61.737-7.416a127.347,127.347,0,0,1-28.355-9.9c-8.5-4.3-25.505-12.865-23.595-24.482" transform="translate(730.367 0.001)" fill="#1c1c1c"/><path d="M858.054,142.635c-.272-4.423-.486-8.844-.684-13.259a4.17,4.17,0,0,0-1.9,4.349c3.751,21.194-13.143,34.8-30.816,41.622a251.387,251.387,0,0,1-49.207,13.529c-36.384,5.984-73.986,7.444-110.8,6.7-31.2-.634-63.564-2.017-94.34-7.516-14.766-2.639-29.5-6.668-42.7-13.951-6.051-3.34-13.257-7.506-17.677-12.912-6.225-7.612-4.46-18.295-3.068-27.225a5.823,5.823,0,0,0-1.73-5.214,183.5,183.5,0,0,1-2.726,24.383c-.57,3.026-4.024,3.122-5.823,1.422a4.118,4.118,0,0,1-1.316,1.569,29.116,29.116,0,0,0,3.994,9.679c6.8,10.452,20.631,17.685,31.69,22.549,24.64,10.834,51.791,13.458,78.345,15.5,33.544,2.577,66.991,3.93,100.626,2.317,33.157-1.593,68.031-3.752,99.67-14.545,26.715-9.116,58.318-27.024,53.833-60.092-.005-.035-.017-.059-.022-.094-.221,3.749-.481,7.488-.825,11.2a2.266,2.266,0,0,1-4.53,0" transform="translate(731.979 190.289)" fill="#1c1c1c"/><path d="M495.89,131.309a79.207,79.207,0,0,0-.966,13.71,4.689,4.689,0,0,1,1.078.8q-.208-7.237-.111-14.511" transform="translate(731.419 194.066)" fill="#1c1c1c"/><path d="M553.108,46.884c11.921,5.868,25.813,6.465,38.827,7.315a285.852,285.852,0,0,0,51.273-1.167c11.688-1.346,26.043-3.558,34.287-12.868a3.7,3.7,0,0,0,1.306-.9c7.672-7.954,4.753-16.419-3.965-22.145C662.107,8.761,646.685,8.5,632.02,7.668c-17.566-.994-35.112-1.5-52.572,1.184-11.5,1.769-29.567,4.587-37.092,14.8-7.307,9.927,1.866,18.855,10.752,23.228m5.521-20.867a100.808,100.808,0,0,1,15.145-4.659,177.765,177.765,0,0,1,31.715-4.423c11.27-.6,22.584-.369,33.856.03a93.7,93.7,0,0,1,16.991,1.7c3.732.823,24.66,6.842,17.487,15.618a3.964,3.964,0,0,0-.255.384c-16.867,8.584-39.421,8.779-57.81,8.918-17.635.134-40.559,1.175-56.928-6.495-1.194-.56-4.1-1.626-4.827-2.743-2.686-4.106,1.643-7.1,4.626-8.336" transform="translate(797.644 10.15)" fill="#1c1c1c"/><path d="M503.147,40.343a91.806,91.806,0,0,1-4.126,18.592c.082.649.169,1.3.248,1.948a228.827,228.827,0,0,1,1.244,35.276c-.85,24.383-4.21,48.518-6.705,72.762a75.937,75.937,0,0,0,2.409,29.371c3.06,11.267,3.261,22.68,3.385,34.282.2,18.939-1.177,38.064-1.4,57.047q-.089,7.274.114,14.511a4.517,4.517,0,0,1,1.145,4.966c1.8,1.7,5.256,1.6,5.826-1.422A183.191,183.191,0,0,0,508,283.292c.818-15.693.285-31.7.506-47,.156-10.593,1.006-21.34-.295-31.886-1.445-11.728-4.658-21.821-3.434-33.846,2.458-24.142,5.967-48.2,5.836-72.534a231.759,231.759,0,0,0-2.758-34.55c-1.261-8.046-3.09-15.943-4.146-23.959a86.04,86.04,0,0,1-.838-12.278c.049-4.094-6.046-4.019-6.309,0-.025.379-.022.753-.04,1.13A96.64,96.64,0,0,0,497,42.682c.265-1.018.518-2.042.748-3.07.667-3,5.761-2.352,5.4.731" transform="translate(729.11 35.754)" fill="#1c1c1c"/><path d="M654.132,235.068c-.835-24.308-7.015-47.988-7.83-72.177-.785-23.193,2.763-46.555,3.952-69.7q1.65-32.032,1.569-64.109c0-.736,0-1.467,0-2.2-.01-2.1.008-4.193-.01-6.289a2.8,2.8,0,0,0-2.225-2.82,2.95,2.95,0,0,0-3.843,2.82c-.025,8.073-.159,16.146-.349,24.219-.364,15.519-1.021,31.034-2.124,46.521-1.7,23.818-5.813,47.7-6.3,71.563-.478,23.516,4.728,47.014,7.416,70.3,2.327,20.146,2.716,40.222,3.615,60.362.2,4.418.409,8.836.681,13.262a2.268,2.268,0,0,0,4.532,0c.342-3.709.6-7.449.825-11.2,1.189-20.081.778-40.613.092-60.546" transform="translate(941.351 26.113)" fill="#1c1c1c"/><path d="M6.867,165.752c45.143-9.183,90.125-20.168,136.375-21.736,23.553-.8,46.972.2,70.17,4.517,21.28,3.962,43.389,12.91,65.2,12.38,20.029-.486,38.745-11.753,58.888-9.894,20.924,1.933,39.882,11.547,61.311,7.753,20.522-3.635,38.4-15.252,59.262-17.858a150.653,150.653,0,0,1,67.92,7.582c9.8,3.437,18.342,8.789,28.474,11.46a161.557,161.557,0,0,0,31.44,4.753c20.542,1.249,42.477,1.1,62.724-2.852,21.154-4.128,41.171-12.756,62.424-16.738,22.284-4.178,49.122-5.422,71.084,1.44,7.077,2.213,13.168,7.838,20.621,8.782,9.188,1.167,18.352-5.238,27.436-6.623,20.235-3.085,40.425,1.586,60.382,4.383,18.114,2.54,36.361,5.342,54.408.716,21.07-5.4,40.3-17.526,60.972-24.442a316.878,316.878,0,0,1,77.306-15.779c23.223-1.687,46.845,1,69.9-2.8,34.416-5.674,61.975-28.048,72.648-59.894a91.65,91.65,0,0,0,4.126-18.592c.359-3.083-4.735-3.729-5.4-.731-.23,1.028-.483,2.052-.748,3.07a85.193,85.193,0,0,1-27.406,43.9c-16.684,14-37,19.548-58.291,21.828-21.7,2.322-43.569,1.849-65.266,4.269A334.861,334.861,0,0,0,1010,117.749c-20.614,6.45-39.34,16.619-59.47,24.1-19.548,7.265-40.269,5.2-60.261.956-17.2-3.655-35.353-7.885-53.04-6.351a69.813,69.813,0,0,0-22.175,5.677c-7.471,3.288-12.216,4.926-19.875,1.251a64.668,64.668,0,0,0-10.913-4.542c-19.434-5.36-41.84-5.3-61.658-2.867-20.79,2.555-39.642,11.2-59.978,15.42-21.613,4.483-44.5,4.277-66.508,3.482-21.942-.793-42.365-6.143-63.435-11.651-19.707-5.154-38.822-9.768-59.369-9.461-19.957.3-37.06,5.018-55.689,11.708-9.466,3.4-19.063,6.5-29.23,6.609-12.419.136-24.4-3.871-36.3-6.9-19.729-5.025-35.823-2.186-55.248,2.391-12.808,3.016-24.269,3.4-37.186.56-12.224-2.689-24.15-6.143-36.577-7.875a450.091,450.091,0,0,0-72.663-4.014c-50.255,1.214-101.164,8.717-148.849,24.814a3.049,3.049,0,0,1,1.105.6,38.853,38.853,0,0,1,4.19,4.1" transform="translate(2.323 43.792)" fill="#1c1c1c"/><path d="M1183.52,142.915a4.517,4.517,0,0,0-1.145-4.966,4.741,4.741,0,0,0-1.078-.8,4.279,4.279,0,0,0-4.128.03c-15.209,7.89-29.564,17.346-45.123,24.571-17.881,8.3-36.163,9.567-55.615,7.872-19.4-1.69-38.589-5.2-58.132-4.371-17.794.753-35.449,4.272-52.589,8.965-37.137,10.169-74,29.44-112.719,32.431-37.816,2.919-72.916-17.913-110.929-17.028-37.732.882-73.6,16.057-111.475,15.128-20.017-.491-39.595-4.825-59.354-7.612-18.9-2.666-37.808-4.336-56.9-3.8-18.557.525-37.32,1.286-55.526,5.248-19.994,4.351-39.364,12.313-59.612,15.39-20.066,3.053-40.383,1.073-60.553.711a229.039,229.039,0,0,0-52.968,5.575c-40.968,8.876-80.268,22.353-122.514,12.553-20.708-4.8-40.165-12.305-61.539-14.31-20.909-1.962-41.8-.188-62.645,1.581a21.406,21.406,0,0,1-3.125,1.816,3.719,3.719,0,0,1-3.65-.379c-2.954,2.51-2.131,8.38,2.713,8.13,19.784-1.026,39.724-2.416,59.53-1.187,20.262,1.259,39.721,7.109,59.371,11.8,17.732,4.237,35.286,6.467,53.5,4.319,17.326-2.042,34.347-5.982,51.239-10.254,17.878-4.522,35.851-9.29,54.225-11.3,20.319-2.22,40.784-.211,61.148.2,39.553.79,75.929-12.9,114.453-19.538,20.641-3.556,41.421-3.935,62.31-2.981,19.695.9,39.122,5.516,58.623,8.16,38.438,5.211,74.254-3.311,112.245-7.446,19.9-2.168,38.889-1.593,58.42,3.08,17.876,4.279,35.382,9.78,53.818,11.225,38.192,2.993,74.66-16.362,110.186-27.567,20.8-6.562,42.085-12.288,63.871-14.275,22.589-2.062,44.4,1.551,66.81,3.717,19.283,1.863,38.381,1.38,56.581-5.816,17.762-7.025,33.846-17.593,50.421-26.933a4.826,4.826,0,0,0,.545-.382,4.093,4.093,0,0,0,1.316-1.566" transform="translate(45.048 201.934)" fill="#1c1c1c"/><path d="M80.9,301.73a21.491,21.491,0,0,0,3.125-1.814c6.879-4.78,11.988-13.785,12.291-21.9.344-9.3-5.538-16.072-12.429-21.5-8.782-6.916-18.8-11.193-28.323-16.82-11.235-6.638-18.694-17.38-22.358-29.743-3.318-11.2-4.312-22.822-5.36-34.386-.994-10.975-5.166-19.474-9.773-29.264-6.17-13.113,1.91-23.944.486-37.243a37.962,37.962,0,0,0-9.362-21.62A38.868,38.868,0,0,0,5,83.332a3.126,3.126,0,0,0-1.105-.6C1.284,81.97-1.5,85.221.94,87.4c10.387,9.258,12.263,20.755,7.875,33.578-3.5,10.217-5.87,18.451-1.308,28.764,4.18,9.453,8.028,18.637,11.27,28.484,3.169,9.627,4.118,19.68,6.648,29.482,4.807,18.629,15.153,29.847,30.08,41.287,7.919,6.071,17.12,10.521,24.46,17.343,12.219,11.364.1,20.309-3.761,31.787a2.722,2.722,0,0,0,1.043,3.231,3.725,3.725,0,0,0,3.65.377" transform="translate(-0.001 122.108)" fill="#1c1c1c"/><path d="M535.784,33.15c8.968.223,17.824.676,26.67,1.011q6.635.212,13.254.419l6.619.191,6.618.074,6.619.109,6.624-.012,13.259-.047c8.851-.092,17.715-.295,26.687-.258a169.165,169.165,0,0,1-26.43,4.738c-2.225.243-4.458.431-6.69.607l-6.708.406-6.72.164-6.72.04-6.718-.233L575.436,40l-6.693-.592c-2.228-.238-4.453-.491-6.671-.8a170.035,170.035,0,0,1-26.288-5.466" transform="translate(791.852 48.993)" fill="#141414"/><path d="M548.133,33.671a85.548,85.548,0,0,1,12.625-1.489c2.089-.173,4.168-.154,6.249-.24l6.237-.01,6.232.211c2.076.164,4.155.206,6.239.451a84.578,84.578,0,0,1,12.566,1.923,61.5,61.5,0,0,1-12.513,2.567c-2.1.29-4.2.349-6.306.506l-6.314.092-6.309-.312c-2.1-.223-4.2-.362-6.284-.719a61.989,61.989,0,0,1-12.422-2.978" transform="translate(810.102 47.192)" fill="#141414"/><path d="M553.57,29.256a28.943,28.943,0,0,1,8.274-2.347c1.39-.258,2.788-.295,4.183-.419l4.185-.02,4.173.369c1.38.248,2.768.4,4.133.778a28.471,28.471,0,0,1,8.041,3.055,38.039,38.039,0,0,1-8.4,1.415c-1.378.161-2.741.116-4.108.188l-4.079-.062-4.074-.292c-1.355-.188-2.716-.268-4.076-.543a38.489,38.489,0,0,1-8.249-2.124" transform="translate(818.138 39.122)" fill="#141414"/><path d="M558.011,27.827a18.182,18.182,0,0,1,5.808-2.235,26.873,26.873,0,0,1,2.9-.481l2.9-.159,2.9.151a27.484,27.484,0,0,1,2.9.478,17.984,17.984,0,0,1,5.808,2.245,17.984,17.984,0,0,1-5.808,2.245,27.484,27.484,0,0,1-2.9.478l-2.9.151-2.9-.159a26.873,26.873,0,0,1-2.9-.481,18.124,18.124,0,0,1-5.808-2.235" transform="translate(824.701 36.879)" fill="#141414"/><path d="M613.537,14.72a13.117,13.117,0,0,1,1.831,9.087,20.177,20.177,0,0,1-1.179,4.6,36.585,36.585,0,0,1-2.114,4.158c-.87,1.271-1.8,2.475-2.765,3.635a32.329,32.329,0,0,1-3.244,3.115,26.668,26.668,0,0,1-7.7,4.614,52.47,52.47,0,0,1,4.369-7.617c.724-1.214,1.574-2.292,2.287-3.464.793-1.1,1.539-2.225,2.208-3.37a31.111,31.111,0,0,0,2.037-3.36c.691-1.113,1.185-2.29,1.784-3.457a35.893,35.893,0,0,0,2.49-7.939" transform="translate(884.337 21.755)" fill="#141414"/><path d="M623.8,18.261a18.3,18.3,0,0,1-2.337,5.8,26.866,26.866,0,0,1-1.635,2.466l-1.871,2.247-2.1,2.037a27.576,27.576,0,0,1-2.337,1.814,18.157,18.157,0,0,1-5.62,2.753,18.111,18.111,0,0,1,2.329-5.808,27.584,27.584,0,0,1,1.638-2.466l1.876-2.24,2.1-2.032a26.886,26.886,0,0,1,2.339-1.814,18.287,18.287,0,0,1,5.613-2.758" transform="translate(898.431 26.988)" fill="#141414"/><path d="M627.891,18.749a22.137,22.137,0,0,1-3.06,5.893c-.57.907-1.276,1.668-1.913,2.5l-2.106,2.29-2.3,2.094c-.84.627-1.6,1.333-2.515,1.893a21.893,21.893,0,0,1-5.925,3.008,19.16,19.16,0,0,1,2.693-6.125,29.684,29.684,0,0,1,1.868-2.6l2.131-2.349,2.374-2.106a28.875,28.875,0,0,1,2.617-1.849,19.258,19.258,0,0,1,6.138-2.649" transform="translate(901.641 27.71)" fill="#141414"/><path d="M633.783,20.2a18.8,18.8,0,0,1-1.586,6.14,27.837,27.837,0,0,1-1.316,2.7l-1.576,2.52-1.831,2.339a28.163,28.163,0,0,1-2.1,2.153,18.638,18.638,0,0,1-5.253,3.563,18.611,18.611,0,0,1,1.581-6.145,28.059,28.059,0,0,1,1.313-2.7l1.586-2.515,1.839-2.337a28.085,28.085,0,0,1,2.1-2.151,18.782,18.782,0,0,1,5.246-3.568" transform="translate(916.497 29.859)" fill="#141414"/><path d="M637.285,22.178a16.373,16.373,0,0,1,.681,7.092,24.126,24.126,0,0,1-.614,3.444q-.52,1.661-1.122,3.3-.766,1.572-1.6,3.1a24.169,24.169,0,0,1-2.062,2.827,16.294,16.294,0,0,1-5.6,4.408,37.013,37.013,0,0,1,1.715-6.653c.292-1.056.746-2.007,1.078-3.018q.632-1.446,1.187-2.919.684-1.42,1.3-2.874c.5-.942.877-1.925,1.432-2.867a37.713,37.713,0,0,1,3.613-5.84" transform="translate(926.606 32.778)" fill="#141414"/><path d="M616.9,43.069A32.807,32.807,0,0,1,619.545,47c.9,1.779,1.142,1.655,1.4,1.787.26-.064.32-.067.384-.394a.255.255,0,0,0,.017-.072,1.4,1.4,0,0,0,.015-.379c.007.042.025.064.05.072a.077.077,0,0,0,.044-.007c.022-.032-.007.045.06-.084l.27-.518a36.268,36.268,0,0,1,2.577-3.925,26.39,26.39,0,0,1,6.8-6.559,74.827,74.827,0,0,1-2.882,8.74c-.476,1.41-1.11,2.726-1.6,4.111l-.637,1.445c-.3.679-.587,1.383-.87,2.1-.582,1.39-1.127,2.981-1.692,4.559l-2.815,7.342-.414-1.45c-.8-3.221-1.606-6.118-2.213-9.072a44.449,44.449,0,0,1-1.2-6.891,33.4,33.4,0,0,1,.05-4.743" transform="translate(911.573 54.571)" fill="#141414"/><path d="M631.712,34.506a33.689,33.689,0,0,1,.942,8.586c.049,1.415-.1,2.8-.161,4.2l-.478,4.148-.783,4.1c-.372,1.35-.632,2.718-1.108,4.051a33.321,33.321,0,0,1-3.489,7.9,33.49,33.49,0,0,1-.949-8.589c-.052-1.415.109-2.8.161-4.2l.486-4.146.793-4.1c.364-1.35.634-2.716,1.108-4.049a33.657,33.657,0,0,1,3.479-7.907" transform="translate(924.705 50.997)" fill="#141414"/><path d="M636.555,32.527a14.021,14.021,0,0,1,1.581,5.176,19.027,19.027,0,0,1,.159,2.505l-.159,2.466-.468,2.423a19.889,19.889,0,0,1-.793,2.384,13.936,13.936,0,0,1-2.862,4.6,13.948,13.948,0,0,1-1.588-5.176,19.505,19.505,0,0,1-.159-2.505l.168-2.463.476-2.423a19.455,19.455,0,0,1,.793-2.384,14.074,14.074,0,0,1,2.852-4.6" transform="translate(934.445 48.073)" fill="#141414"/><path d="M513.32,168.678c.672-2.389,1.467-4.708,2.347-6.98l.674-1.695.349-.842c.139-.317.176-.456.439-.989l2.877-5.793c1.033-2.086,2.148-4.215,3.291-6.363l3.377-6.306.3-.535-.424,8.7c-.151,3.073-.32,6-.211,8.472l.1,1.92.211,1.514a4.67,4.67,0,0,0,.089.538l.079.377a7.471,7.471,0,0,0,.178.731,10.582,10.582,0,0,0,1.088,2.659,9.139,9.139,0,0,0,1.685,2.24,31.1,31.1,0,0,0,2.471,2.047,66.381,66.381,0,0,1,5.922,4.371,11.58,11.58,0,0,1,2.508,3.078,7.049,7.049,0,0,1,.818,3.759,8.948,8.948,0,0,0-4.926-4.5c-2.044-.964-4.3-1.727-6.606-2.837a18.928,18.928,0,0,1-3.462-2.069,15.452,15.452,0,0,1-3.031-3.2,16.024,16.024,0,0,1-1.826-3.93c-.111-.337-.218-.674-.295-1.011l-.213-.855-.069-.283-.017.007a1.3,1.3,0,0,0,.129-.476l.007-.045c.1-.421.045-.369.012-.468-.047-.052-.121-.084-.28-.077a2.537,2.537,0,0,0-.694.491l-2.106,2.763c-1.5,1.918-3.085,3.789-4.792,5.59" transform="translate(758.651 205.688)" fill="#141414"/><path d="M536.9,171.221a29.349,29.349,0,0,1,2.837-9.766,39.809,39.809,0,0,1,2.433-4.443q1.416-2.1,2.971-4.108c.553-.639,1.123-1.264,1.695-1.886l.872-.919.657-.7.83-.84,3.276-3.073c.263-.235.528-.508.783-.7l.525,1.066.991,2.109.914,2.037.426.979.191.456.1.292c.268.783.52,1.573.751,2.376a37.156,37.156,0,0,1,1.09,4.978,37.663,37.663,0,0,1-3.573-3.633q-.822-.948-1.581-1.925l-.191-.245a.363.363,0,0,0-.1-.082l-.159-.1a1.173,1.173,0,0,0-.25-.109c-.273-.134-.419.4-.411.567l-.01.037s.012,0-.164.208l-.758.907c-.5.612-.991,1.224-1.467,1.849q-1.561,1.773-3.011,3.643c-1.056,1.182-1.985,2.461-3.058,3.655-2.062,2.453-4.136,4.936-6.614,7.369" transform="translate(793.499 213.984)" fill="#141414"/><path d="M559.9,189.186A163.521,163.521,0,0,0,573.229,165.3l.907-2.124c.592-1.288,1.14-2.681,1.722-4.069l1.74-4.212.439-1.068.2-.421,1-2.223,1.276,5.283.51,2.069c.079.3.151.664.24.917l.3.55.3.55a2.117,2.117,0,0,0,.315.352,4.715,4.715,0,0,0,.528.508,5.926,5.926,0,0,0,.627.409c2.632,1.7,6.656.7,9.443-1.824a15.925,15.925,0,0,0,3.722-4.507,21.008,21.008,0,0,0,1.38-2.879,32.322,32.322,0,0,0,1.048-3.261l.456-1.762.379-2.042c.81-4.691,1.64-10.866,2.364-15.606l.406,1.576.188.716.233.989.934,4,1.811,7.932q2.111,8.53,4.22,17.073,1.743,6.679,3.491,13.386a125.846,125.846,0,0,1-6.168-12.474c-1.725-3.858-3.89-10.241-3.858-9.468a1.511,1.511,0,0,0-.253-.25.307.307,0,0,0-.072-.04c-.012-.032-.02.025-.022.124l-.015.216c-.022.4-.047.689-.04.895a1.167,1.167,0,0,1-.04.235,29.311,29.311,0,0,1-1.554,3.365,21.658,21.658,0,0,1-4.9,6.173,16.245,16.245,0,0,1-7.426,3.6,12.617,12.617,0,0,1-4.393.062,11.337,11.337,0,0,1-4.222-1.626,12.247,12.247,0,0,1-1.147-.872,1.609,1.609,0,0,1-.27-.253c-.062-.064-.072-.079-.072-.089a1.7,1.7,0,0,1-.094-.238c-.042-.052-.045-.354-.094-.23l-.159.178-.23.28c-.374.711-.758,1.415-1.165,2.106A84.194,84.194,0,0,1,559.9,189.186" transform="translate(827.498 192.048)" fill="#141414"/><path d="M594.159,161.447c2.515-3.382,4.943-6.512,7.183-9.728l1.363-2.024,2.661-3.818,1.739.768,1.333.629c.394.193,1.036.481,1.15.515l1.333.543c.9.33,1.794.664,2.711.944a47.868,47.868,0,0,0,5.481,1.73c1.844.57,3.732.961,5.63,1.422,3.816.838,7.711,1.445,11.874,2.146a30.3,30.3,0,0,1-12.357,2.317,38.431,38.431,0,0,1-6.344-.57,54.163,54.163,0,0,1-6.185-1.618c-1-.367-1.982-.79-2.961-1.212l-1.45-.679c-.349-.161-.168-.089-.228-.124l-.035-.037a.456.456,0,0,0-.069-.111.206.206,0,0,0-.107.01l-.069.025c-.022,0-.025-.015-.223.208a25.2,25.2,0,0,1-1.876,1.871,31.835,31.835,0,0,1-10.556,6.794" transform="translate(878.126 215.595)" fill="#141414"/><path d="M621.335,154.563a13.114,13.114,0,0,1,2.188-5.878,18.718,18.718,0,0,1,1.863-2.421q1.086-1.063,2.228-2.067,1.249-.873,2.535-1.678a19.524,19.524,0,0,1,2.8-1.232,13.043,13.043,0,0,1,6.237-.711,28.023,28.023,0,0,1-3.923,4.559c-.637.7-1.368,1.232-2.019,1.868q-1.063.833-2.079,1.715-1.1.773-2.166,1.6c-.773.486-1.469,1.061-2.3,1.514a28.392,28.392,0,0,1-5.36,2.726" transform="translate(918.29 207.587)" fill="#141414"/><path d="M500.318,38.857a108.082,108.082,0,0,1,11.344,2.8c1.856.473,3.64,1.108,5.466,1.618q2.695.9,5.412,1.692,2.676.929,5.387,1.767c1.782.652,3.6,1.167,5.387,1.863a106.71,106.71,0,0,1,10.853,4.331,42.785,42.785,0,0,1-11.867.04c-1.97-.188-3.885-.622-5.823-.984q-2.858-.721-5.694-1.544-2.784-.985-5.526-2.067c-1.789-.83-3.6-1.6-5.308-2.587a43.231,43.231,0,0,1-9.632-6.933" transform="translate(739.435 57.428)" fill="#141414"/><path d="M504.225,47.783a24.121,24.121,0,0,1,7.208-.771c1.179-.025,2.317.154,3.471.238l3.407.553,3.345.857c1.09.394,2.205.679,3.276,1.177a23.88,23.88,0,0,1,6.287,3.613,23.915,23.915,0,0,1-7.208.781c-1.182.025-2.317-.161-3.474-.24l-3.4-.56-3.343-.865c-1.093-.389-2.205-.681-3.276-1.177a24.111,24.111,0,0,1-6.289-3.605" transform="translate(745.21 69.463)" fill="#141414"/><path d="M508.171,55.974a11.023,11.023,0,0,1,5.491-1.893,16.024,16.024,0,0,1,2.822,0c.922.146,1.844.322,2.758.528q1.327.468,2.619,1.018a16.113,16.113,0,0,1,2.391,1.5,10.965,10.965,0,0,1,3.633,4.537,25.794,25.794,0,0,1-5.491-.451c-.852-.087-1.613-.347-2.421-.478q-1.156-.338-2.327-.607-1.13-.4-2.29-.736c-.753-.312-1.534-.51-2.3-.887a26.15,26.15,0,0,1-4.884-2.537" transform="translate(751.041 79.831)" fill="#141414"/><path d="M505.688,63.617a5.592,5.592,0,0,1,2.361-1.46,3.215,3.215,0,0,1,.944-.139l.823.161.706.446a3.238,3.238,0,0,1,.585.753,5.551,5.551,0,0,1,.689,2.7,5.543,5.543,0,0,1-2.364,1.467,3.3,3.3,0,0,1-.942.139l-.82-.169-.706-.453a3.248,3.248,0,0,1-.585-.753,5.6,5.6,0,0,1-.691-2.689" transform="translate(747.372 91.66)" fill="#141414"/><path d="M502.242,83.273a10.521,10.521,0,0,1,4.151-1.913,13.21,13.21,0,0,1,2.025-.32h2l1.975.31a13.12,13.12,0,0,1,1.948.634,10.413,10.413,0,0,1,3.8,2.555,10.421,10.421,0,0,1-4.151,1.92,13.5,13.5,0,0,1-2.027.32l-2-.007-1.975-.317a13.228,13.228,0,0,1-1.948-.637,10.5,10.5,0,0,1-3.8-2.545" transform="translate(742.279 119.771)" fill="#141414"/><path d="M500.259,118.371a43.116,43.116,0,0,1,7.9-.664c1.279-.072,2.52.04,3.776.03q1.866.126,3.729.183,1.855.2,3.719.332c1.241.188,2.485.245,3.742.5a42.449,42.449,0,0,1,7.729,1.769,22.127,22.127,0,0,1-7.649,2.718,33.961,33.961,0,0,1-3.965.461q-1.989.019-3.977-.04-1.981-.227-3.945-.523a33.758,33.758,0,0,1-3.861-1.011,22.221,22.221,0,0,1-7.2-3.752" transform="translate(739.348 173.926)" fill="#141414"/><path d="M503.23,131.892a31.172,31.172,0,0,1,6.425-2.064c1.038-.29,2.072-.394,3.1-.615q1.546-.193,3.083-.441,1.546-.108,3.1-.273c1.051-.012,2.079-.151,3.157-.1a30.775,30.775,0,0,1,6.728.57,16.7,16.7,0,0,1-5.806,3.823,24.677,24.677,0,0,1-3.209,1.083q-1.65.338-3.316.61-1.684.108-3.37.149a25.324,25.324,0,0,1-3.37-.335,16.807,16.807,0,0,1-6.517-2.406" transform="translate(743.739 189.748)" fill="#141414"/><path d="M649.239,108.509a77.408,77.408,0,0,1-4.2,16.382c-.924,2.669-2.084,5.233-3.2,7.825q-1.832,3.8-3.809,7.545-2.13,3.654-4.381,7.228c-1.613,2.317-3.169,4.661-4.943,6.854a76.829,76.829,0,0,1-11.693,12.224c2.52-5.095,5.253-9.909,7.957-14.716,1.3-2.438,2.731-4.777,4.029-7.2q2.067-3.557,4.007-7.181,2.052-3.561,3.982-7.2c1.365-2.384,2.6-4.834,3.979-7.226,2.651-4.837,5.285-9.7,8.271-14.54" transform="translate(911.902 160.369)" fill="#141414"/><path d="M636.736,118.339a52.229,52.229,0,0,1-1.194,8.115c-.218,1.306-.6,2.54-.857,3.814q-.524,1.862-.964,3.744-.573,1.844-1.068,3.714c-.426,1.227-.721,2.483-1.2,3.717a50.849,50.849,0,0,1-3.11,7.592,22.469,22.469,0,0,1-1.318-8.323,34.637,34.637,0,0,1,.307-4.15q.379-2.041.845-4.066.636-1.981,1.351-3.928a34.083,34.083,0,0,1,1.846-3.732,22.715,22.715,0,0,1,5.365-6.5" transform="translate(926.69 174.897)" fill="#141414"/><path d="M639.884,124.3a14.889,14.889,0,0,1,.652,5.553,20.664,20.664,0,0,1-.283,2.589l-.592,2.5-.887,2.406a21.827,21.827,0,0,1-1.2,2.314,14.8,14.8,0,0,1-3.635,4.252,14.822,14.822,0,0,1-.662-5.556,21.671,21.671,0,0,1,.285-2.589l.6-2.5.895-2.4a21.144,21.144,0,0,1,1.2-2.314,14.937,14.937,0,0,1,3.628-4.255" transform="translate(935.894 183.704)" fill="#141414"/><path d="M639.46,126.3a6.63,6.63,0,0,1,1.6,2.966,6.1,6.1,0,0,1,.178,1.338l-.136,1.261-.436,1.192a6,6,0,0,1-.756,1.118,6.57,6.57,0,0,1-2.763,1.938,6.584,6.584,0,0,1-1.606-2.969,6.05,6.05,0,0,1-.176-1.336l.141-1.261.443-1.189a5.876,5.876,0,0,1,.756-1.118,6.628,6.628,0,0,1,2.755-1.94" transform="translate(939.024 186.663)" fill="#141414"/><path d="M546.116,42.539a18.927,18.927,0,0,1,11.388,5.2,23.915,23.915,0,0,1,4.153,5.04l.788,1.452c.206.409.575,1.261.491,1.033.035.01.055,0,.069-.045a1.34,1.34,0,0,0-.03.322c0,.052.005.047.012.062.037.265.094.188.5.035.005.1.478-.585.8-.924q.513-.617,1.075-1.187a22.3,22.3,0,0,1,2.371-2.121,19.306,19.306,0,0,1,5.506-2.971c-1.271,1.64-2.4,3.258-3.427,4.886-.5.823-.991,1.633-1.432,2.463q-.342.617-.647,1.244c-.253.476-.29.639-.8,1.6-.382.84-.758,1.725-1.152,2.674l-.545,1.638-.278.83-.285.976-2.443,8.5-1.291,4.336-1.425-12.072-.231-2.28a16.619,16.619,0,0,0-.349-1.749,32.323,32.323,0,0,0-.788-3.182l-.676-1.715-.572-1.2a33.27,33.27,0,0,0-2.718-4.661,37.566,37.566,0,0,0-8.058-8.182" transform="translate(807.122 62.87)" fill="#141414"/><path d="M581.543,42.394a10.6,10.6,0,0,1,2.946,2.575,10.753,10.753,0,0,1,.929,1.328l.679,1.385.451,1.472a10.892,10.892,0,0,1,.223,1.606,10.485,10.485,0,0,1-.414,3.9,7.035,7.035,0,0,1-3.608-1.9,8.828,8.828,0,0,1-1.182-1.393q-.424-.781-.823-1.578-.249-.859-.463-1.72a8.566,8.566,0,0,1-.079-1.824,7.059,7.059,0,0,1,1.341-3.846" transform="translate(857.454 62.655)" fill="#141414"/><path d="M581.246,160.012a2.508,2.508,0,0,1,2.5-.077c.483.1.7.193.825.193.139.007.119-.079.089-.27-.067-.141.146-.488.188-.637a2.177,2.177,0,0,0,.139-.444l.012-.045c.027-.1.025-.161-.007-.2l2.223-2.067a26.261,26.261,0,0,1,2.579-1.873,17.858,17.858,0,0,1,6.106-2.612,22.861,22.861,0,0,1-2.983,5.836c-.548.9-1.232,1.653-1.834,2.485l-2.1,2.384c-1.271,1.279-2.505,2.55-3.7,3.831l-.446-.5-.409-.483-.253-.283-.255-.26-.126-.124-.064-.059c-.02-.02-.069.111-.1.159l-.865,1.571-.208.372-.052.092-.025.045-.007.012,0,0c1.336-4.5.369-1.249.669-2.252l0,0,.007,0,.069-.047c.084-.042.208-.166.258-.144.334.121.426-.191.163-.934a17.132,17.132,0,0,0-1.093-2.394c-.268-.111-.3-.446-.51-.674a1.974,1.974,0,0,0-.776-.6" transform="translate(859.041 224.625)" fill="#141414"/><path d="M539.787,11.154c-2.949,2.091-5.754,3.88-8.457,5.766-1.311,1-2.691,1.851-3.95,2.882a47.111,47.111,0,0,0-3.808,2.981,47.517,47.517,0,0,0-3.69,3.117c-1.254,1.031-2.389,2.186-3.615,3.281a12.193,12.193,0,0,0-2.755,3.08,2.649,2.649,0,0,0-.129.374.954.954,0,0,0-.062.295,1.485,1.485,0,0,0,.275.79,1.426,1.426,0,0,0,1.873.619,1.559,1.559,0,0,1-1.162.887,2.787,2.787,0,0,1-1.623-.2,3.109,3.109,0,0,1-1.821-2.039,4.259,4.259,0,0,1-.171-.9,6.639,6.639,0,0,1,.7-3.291,21.236,21.236,0,0,1,1.4-2.451,32.575,32.575,0,0,1,3.246-4.3,53.431,53.431,0,0,1,3.915-3.722,51.809,51.809,0,0,1,4.448-3.058,33.069,33.069,0,0,1,4.864-2.307,25.688,25.688,0,0,1,10.524-1.8" transform="translate(754.743 16.437)" fill="#141414"/><path d="M514.12,39.1a33.594,33.594,0,0,1,5.565-10.42,49,49,0,0,1,3.893-4.47q2.156-2.037,4.448-3.928,2.409-1.743,4.916-3.323a49.221,49.221,0,0,1,5.308-2.644,33.332,33.332,0,0,1,11.49-2.753c-3.177,2.418-6.284,4.527-9.322,6.683-1.482,1.137-3.028,2.131-4.485,3.266q-2.249,1.591-4.391,3.318-2.212,1.635-4.324,3.41c-1.459,1.125-2.817,2.366-4.287,3.516-2.855,2.4-5.675,4.877-8.812,7.345" transform="translate(759.834 17.092)" fill="#141414"/><path d="M521.945,28.37a22.425,22.425,0,0,1,4.27-5.523,33.365,33.365,0,0,1,2.488-2.23l2.664-1.965,2.837-1.7c1.008-.476,1.953-1.043,3.021-1.432a22.218,22.218,0,0,1,6.75-1.792,22.32,22.32,0,0,1-4.264,5.531c-.771.833-1.66,1.487-2.49,2.23l-2.669,1.955-2.842,1.7c-1,.481-1.953,1.041-3.018,1.432a22.52,22.52,0,0,1-6.745,1.8" transform="translate(771.398 20.282)" fill="#141414"/><path d="M529.432,25a9.722,9.722,0,0,1,1.739-4.768,13.585,13.585,0,0,1,1.509-1.863q.885-.784,1.806-1.534,1.015-.617,2.054-1.184a13.67,13.67,0,0,1,2.265-.788,9.66,9.66,0,0,1,5.08-.007A16.37,16.37,0,0,1,541,18.786c-.481.577-1.053.976-1.559,1.479-.56.416-1.108.842-1.648,1.279q-.892.535-1.767,1.11a21.04,21.04,0,0,1-1.923.961A16.515,16.515,0,0,1,529.432,25" transform="translate(782.464 21.461)" fill="#141414"/><path d="M602.414,8.424A8.589,8.589,0,0,1,606.7,6.84a11.247,11.247,0,0,1,2.1-.025q1.015.167,2.029.372.97.361,1.923.751a11.26,11.26,0,0,1,1.769,1.132,8.495,8.495,0,0,1,2.795,3.615,12.51,12.51,0,0,1-4.374.587,15.148,15.148,0,0,1-1.9-.164l-1.8-.394-1.732-.622a15.271,15.271,0,0,1-1.7-.867,12.706,12.706,0,0,1-3.4-2.8" transform="translate(890.326 10.014)" fill="#141414"/><path d="M613.28,8.81a5.567,5.567,0,0,1,2.359-1.464,3.211,3.211,0,0,1,.942-.139l.825.156.706.446a3.342,3.342,0,0,1,.587.751,5.567,5.567,0,0,1,.694,2.7,5.543,5.543,0,0,1-2.361,1.472,3.283,3.283,0,0,1-.942.139l-.82-.164-.706-.453a3.289,3.289,0,0,1-.585-.751,5.59,5.59,0,0,1-.7-2.689" transform="translate(906.385 10.651)" fill="#141414"/><path d="M647.561,61.12a24.078,24.078,0,0,1-5.625,6.544,35.939,35.939,0,0,1-3.417,2.545q-1.825,1.089-3.695,2.1-1.948.862-3.92,1.643A37.2,37.2,0,0,1,626.8,75.1a23.988,23.988,0,0,1-8.621.431,51.558,51.558,0,0,1,7.037-4.631c1.152-.726,2.366-1.274,3.526-1.943q1.8-.87,3.553-1.806,1.818-.81,3.605-1.7c1.237-.508,2.416-1.127,3.695-1.6a52.63,52.63,0,0,1,7.967-2.736" transform="translate(913.624 90.331)" fill="#141414"/><path d="M650.922,66.094a29.056,29.056,0,0,1-5.523,7.154c-1.033,1.08-2.2,1.982-3.328,2.949q-1.784,1.312-3.6,2.582-1.91,1.126-3.846,2.205c-1.35.617-2.654,1.311-4.069,1.8a28.781,28.781,0,0,1-8.807,2.032,47.842,47.842,0,0,1,6.621-5.952c1.112-.932,2.317-1.685,3.457-2.55q1.784-1.163,3.539-2.371,1.829-1.089,3.635-2.223c1.256-.679,2.451-1.452,3.759-2.076a48.215,48.215,0,0,1,8.165-3.546" transform="translate(918.899 97.682)" fill="#141414"/><path d="M638.674,77.388a18.8,18.8,0,0,1-3.586,5.231,27.653,27.653,0,0,1-2.158,2.094l-2.342,1.829-2.52,1.576a28.732,28.732,0,0,1-2.708,1.308,18.638,18.638,0,0,1-6.15,1.559,18.627,18.627,0,0,1,3.581-5.241,28.586,28.586,0,0,1,2.158-2.091l2.347-1.824,2.525-1.569a28.078,28.078,0,0,1,2.706-1.306,18.8,18.8,0,0,1,6.148-1.566" transform="translate(915.149 114.374)" fill="#141414"/><path d="M636.644,98.162a7.679,7.679,0,0,1-1.881,3.244,8.153,8.153,0,0,1-1.194,1.036l-1.318.741-1.442.456a8.125,8.125,0,0,1-1.574.156,7.6,7.6,0,0,1-3.652-.872,7.6,7.6,0,0,1,1.878-3.251,8.274,8.274,0,0,1,1.192-1.036l1.323-.733,1.447-.449a7.911,7.911,0,0,1,1.571-.156,7.679,7.679,0,0,1,3.65.865" transform="translate(924.568 143.786)" fill="#141414"/><path d="M523.841,104.276a113.126,113.126,0,0,0,35.633,9.438c6.108.615,12.241,1.023,18.4,1.078,6.158.154,12.335.047,18.528-.188q9.3-.2,18.6-.7c6.207-.223,12.4-.649,18.614-.956q18.644-1.186,37.332-2.376a303.51,303.51,0,0,1-36.919,6.847c-6.207.845-12.449,1.378-18.691,1.923q-9.378.65-18.77,1.013c-6.277.134-12.575.136-18.884-.131a149.72,149.72,0,0,1-18.86-2.079c-12.447-2.2-24.8-6.482-34.991-13.864" transform="translate(774.201 154.113)" fill="#141414"/><path d="M536.782,119.185c5.038-.394,9.939-.409,14.818-.394,2.443-.05,4.867.067,7.3.052q3.635.115,7.27.121,3.631.141,7.27.178c2.426.121,4.852.1,7.293.255,4.874.186,9.77.411,14.788,1.023a66.826,66.826,0,0,1-14.575,3.459c-2.465.379-4.948.508-7.434.709q-3.728.115-7.464.121-3.732-.167-7.451-.444c-2.473-.3-4.948-.54-7.4-1.021a67.419,67.419,0,0,1-14.414-4.061" transform="translate(793.326 175.547)" fill="#141414"/><path d="M548.635,129.976a6,6,0,0,1,2.141-2.235,4.611,4.611,0,0,1,1.068-.481l1.07-.159,1.07.151a4.727,4.727,0,0,1,1.071.478,5.966,5.966,0,0,1,2.138,2.245,5.966,5.966,0,0,1-2.138,2.245,4.728,4.728,0,0,1-1.071.478l-1.07.151-1.07-.159a4.612,4.612,0,0,1-1.068-.481,6,6,0,0,1-2.141-2.235" transform="translate(810.844 187.848)" fill="#141414"/><path d="M369.783,150.471a37.64,37.64,0,0,1,1.841,8.96c.2,1.489.193,2.969.283,4.453l-.037,4.438-.347,4.423c-.225,1.469-.342,2.944-.674,4.411a37.352,37.352,0,0,1-2.634,8.762,37.234,37.234,0,0,1-1.851-8.963c-.2-1.487-.186-2.966-.282-4.45l.047-4.438.354-4.423c.221-1.472.344-2.944.674-4.411a37.68,37.68,0,0,1,2.627-8.762" transform="translate(541.042 222.386)" fill="#141414"/><path d="M373.986,162.939a3.81,3.81,0,0,1,1.328-3.13,4.571,4.571,0,0,1,1.318-.82,12.38,12.38,0,0,1,1.487-.317,13.116,13.116,0,0,1,1.507.2,4.768,4.768,0,0,1,1.378.724,3.791,3.791,0,0,1,1.549,3.033c-1.256.644-1.987,1.051-2.619,1.326a6.318,6.318,0,0,1-.852.34,6.777,6.777,0,0,0-.751.126,6.951,6.951,0,0,0-.761-.079,6.112,6.112,0,0,1-.875-.278c-.652-.228-1.412-.575-2.708-1.123" transform="translate(552.718 234.506)" fill="#141414"/><path d="M385.753,155.9a5.6,5.6,0,0,1,2.681.721,3.285,3.285,0,0,1,.746.592l.449.711.156.82a3.305,3.305,0,0,1-.146.942,2.354,2.354,0,0,1-4.183,1.63,3.346,3.346,0,0,1-.746-.592l-.439-.714-.151-.823a3.148,3.148,0,0,1,.149-.942,5.56,5.56,0,0,1,1.484-2.347" transform="translate(567.703 230.417)" fill="#141414"/><path d="M423.859,164.626a23.822,23.822,0,0,1,.818-9.5,19.9,19.9,0,0,1,.716-2.277c.04-.131.193-.483.347-.815l.446-.989c.292-.679.629-1.308.952-1.982,1.39-2.54,2.817-4.795,4.349-7.357l1.678-2.5.79,8.17a15.555,15.555,0,0,0,.456,2.84,10.722,10.722,0,0,0,.644,2.027l.168.454.1.24.186.453c.109.315.265.6.382.922a26.383,26.383,0,0,0,4.966,7.094,12.626,12.626,0,0,1-8.688-4.584,10.319,10.319,0,0,1-.825-1.006l-.372-.535-.173-.26-.064-.072c-.2-.25-.23-.216-.292-.166-.03-.007-.049,0-.064.042a.667.667,0,0,0-.022.139c.01-.129-.025-.186-.094-.168a.134.134,0,0,0-.106-.02l-.062.022c-.02,0-.032-.01-.151.206-.372.627-.741,1.256-1.15,1.873-1.531,2.52-3.053,5.09-4.934,7.746" transform="translate(626.177 205.743)" fill="#141414"/><path d="M452.984,157.576a9.425,9.425,0,0,1-3.182-1.99,6.094,6.094,0,0,1-1.856-4.022,5.7,5.7,0,0,1,.409-2.54,6.575,6.575,0,0,1,.647-1.209,6.352,6.352,0,0,1,1.07-1.175,5.363,5.363,0,0,1,2.981-1.127,6.508,6.508,0,0,1,2.991.624,26.44,26.44,0,0,1,3.06,2.161c.818.763,1.7,1.437,2.458,2.287a22.445,22.445,0,0,1,4.185,5.632A22.552,22.552,0,0,1,459,154.276c-1.063-.411-2-1-3.006-1.5a24.532,24.532,0,0,0-2.493-1.479c-.295-.159-.144-.119-.2-.164a.107.107,0,0,0-.089-.05c-.052-.012-.045-.052-.119-.027a1.319,1.319,0,0,0-.23.2,4.109,4.109,0,0,0-.463.647,3.86,3.86,0,0,0-.154,2.307c.149,1,.481,2.139.731,3.37" transform="translate(662.011 215.042)" fill="#141414"/><path d="M474.232,141.7a6.627,6.627,0,0,1,2.193-.969,1.907,1.907,0,0,1,.644-.035l.419.193.2.414a1.964,1.964,0,0,1-.032.644,6.656,6.656,0,0,1-.976,2.2,6.659,6.659,0,0,1-2.2.976,1.966,1.966,0,0,1-.644.032l-.414-.2-.193-.419a1.845,1.845,0,0,1,.035-.644,6.626,6.626,0,0,1,.969-2.193" transform="translate(699.38 207.92)" fill="#141414"/><path d="M460.3,84.41a101.361,101.361,0,0,0,25.847-.57,120.917,120.917,0,0,0,12.536-2.587,114.76,114.76,0,0,0,12.238-3.774c4.051-1.385,8.048-2.971,11.991-4.708,3.99-1.635,7.882-3.521,11.84-5.315,7.865-3.687,15.7-7.607,23.833-11.044a192.969,192.969,0,0,1-21.731,15.011c-3.774,2.3-7.711,4.326-11.688,6.309-4.022,1.881-8.125,3.623-12.32,5.164a120.339,120.339,0,0,1-12.925,3.648,86.841,86.841,0,0,1-13.331,1.747A62.481,62.481,0,0,1,460.3,84.41" transform="translate(680.293 83.373)" fill="#141414"/><path d="M473.178,88.533c3.952-1.809,7.88-3.216,11.79-4.589,1.94-.746,3.913-1.323,5.85-2.027q2.94-.929,5.84-1.958,2.944-.9,5.86-1.9c1.977-.58,3.905-1.293,5.907-1.846,3.962-1.219,7.957-2.418,12.214-3.306a48.723,48.723,0,0,1-10.462,7.439c-1.853,1.068-3.811,1.906-5.744,2.812q-2.966,1.182-5.977,2.265-3.067.914-6.158,1.722c-2.091.424-4.165.9-6.289,1.15a49.175,49.175,0,0,1-12.833.24" transform="translate(699.324 107.749)" fill="#141414"/><path d="M482.015,86.474a29.208,29.208,0,0,1,5.756-2.488c.922-.364,1.856-.545,2.768-.842q1.39-.309,2.76-.679,1.4-.234,2.79-.533c.956-.1,1.878-.332,2.869-.382a29.017,29.017,0,0,1,6.272-.112A14.2,14.2,0,0,1,500.4,85.8a20.881,20.881,0,0,1-2.857,1.378q-1.5.487-3.023.9-1.561.249-3.127.426a21.2,21.2,0,0,1-3.172-.072,14.379,14.379,0,0,1-6.2-1.963" transform="translate(712.385 120.178)" fill="#141414"/><path d="M408.509,80.755a28.749,28.749,0,0,1,6.7-6.628,43.354,43.354,0,0,1,3.9-2.547q2.059-1.082,4.155-2.091,2.167-.851,4.361-1.621a43.523,43.523,0,0,1,4.525-1.118,28.548,28.548,0,0,1,9.416-.372,61.273,61.273,0,0,1-7.989,4.629c-1.313.726-2.681,1.271-4,1.945q-2.026.866-4.019,1.809-2.048.81-4.069,1.7c-1.388.51-2.723,1.13-4.148,1.6a61.907,61.907,0,0,1-8.829,2.7" transform="translate(603.748 97.752)" fill="#141414"/><path d="M436.988,65.1a11.716,11.716,0,0,1,1.948,2.287,5.317,5.317,0,0,1,.476.9c.064.292.141.577.226.857-.012.295-.017.59-.01.887a5.309,5.309,0,0,1-.248.986,11.632,11.632,0,0,1-1.36,2.684,4.38,4.38,0,0,1-2.949-1.425,4.717,4.717,0,0,1-.781-1.155c-.134-.424-.255-.855-.359-1.293,0-.449.02-.895.052-1.341a4.662,4.662,0,0,1,.486-1.306,4.4,4.4,0,0,1,2.52-2.081" transform="translate(641.318 96.219)" fill="#141414"/><path d="M266.712,149.485a53.081,53.081,0,0,1,1.829,10.781c.2,1.792.191,3.576.278,5.365l-.042,5.355-.354,5.342c-.228,1.777-.347,3.556-.681,5.33a52.648,52.648,0,0,1-2.646,10.611,52.462,52.462,0,0,1-1.839-10.782c-.2-1.794-.183-3.578-.278-5.367l.052-5.352.362-5.342c.223-1.777.349-3.556.681-5.33a53.29,53.29,0,0,1,2.639-10.611" transform="translate(388.663 220.928)" fill="#141414"/><path d="M281.719,159.9a19.9,19.9,0,0,0,1.687,2.168,5.872,5.872,0,0,1,.488.6,4.593,4.593,0,0,0,.263.53,4.374,4.374,0,0,0,.06.587,6.475,6.475,0,0,1-.1.763,20.052,20.052,0,0,0-.317,2.733,3.3,3.3,0,0,1-3.335-.121,4.2,4.2,0,0,1-1.162-1.038,10.009,10.009,0,0,1-.674-1.368,9.882,9.882,0,0,1-.131-1.521,4.205,4.205,0,0,1,.453-1.489,3.305,3.305,0,0,1,2.773-1.844" transform="translate(411.593 236.317)" fill="#141414"/><path d="M187.6,155.909a19.726,19.726,0,0,1,1.608,6.309,29.46,29.46,0,0,1,.171,3.087l-.151,3.058-.456,3.026a30.071,30.071,0,0,1-.786,2.993,19.526,19.526,0,0,1-2.85,5.858,19.5,19.5,0,0,1-1.616-6.309,30.178,30.178,0,0,1-.171-3.09l.159-3.055.466-3.026a29.4,29.4,0,0,1,.786-2.993,19.729,19.729,0,0,1,2.84-5.858" transform="translate(270.979 230.423)" fill="#141414"/><path d="M197.291,156.937a14.271,14.271,0,0,1,.86,3.1,6.793,6.793,0,0,1,.1,1.137c-.045.342-.074.679-.092,1.018-.114.317-.213.642-.3.971a7.308,7.308,0,0,1-.535,1.008,14.141,14.141,0,0,1-2.01,2.523,4.675,4.675,0,0,1-2.48-2.555,5.575,5.575,0,0,1-.392-1.541c0-.515.035-1.031.084-1.551.159-.5.335-.981.533-1.457a5.507,5.507,0,0,1,.964-1.266,4.687,4.687,0,0,1,3.271-1.39" transform="translate(284.411 231.942)" fill="#141414"/><path d="M200.967,157.377a6.474,6.474,0,0,1,2.235,2.446,5.678,5.678,0,0,1,.481,1.222l.159,1.224-.151,1.222a5.816,5.816,0,0,1-.478,1.224,6.45,6.45,0,0,1-2.245,2.446,6.45,6.45,0,0,1-2.245-2.446,5.815,5.815,0,0,1-.478-1.224l-.151-1.222.159-1.224a5.679,5.679,0,0,1,.481-1.222,6.474,6.474,0,0,1,2.235-2.446" transform="translate(292.768 232.592)" fill="#141414"/><path d="M176.769,76.481a20.855,20.855,0,0,1,1.544,3.935c.228.582.27,1.132.434,1.68.069.548.161,1.09.275,1.623.02.548.062,1.093.126,1.64-.032.572.064,1.118-.02,1.735a20.677,20.677,0,0,1-.572,4.193,6.869,6.869,0,0,1-3.692-2.788,9.674,9.674,0,0,1-1.033-1.958q-.3-1.052-.518-2.133c-.03-.733-.027-1.467,0-2.193a9.327,9.327,0,0,1,.538-2.146,6.886,6.886,0,0,1,2.914-3.588" transform="translate(256.113 113.034)" fill="#141414"/><path d="M244.142,90.858c2.993-.766,5.756-1.244,8.477-1.742,1.353-.315,2.7-.468,4.027-.768q2-.323,3.975-.783,1.992-.335,3.967-.81c1.341-.23,2.639-.612,4.012-.84,2.7-.587,5.437-1.207,8.5-1.643a21.064,21.064,0,0,1-6.891,5.833,31.5,31.5,0,0,1-4.106,1.881q-2.152.688-4.354,1.219-2.234.349-4.485.54a31.567,31.567,0,0,1-4.515-.159,21.176,21.176,0,0,1-8.6-2.728" transform="translate(360.825 124.548)" fill="#141414"/><path d="M273.758,78.454a21.877,21.877,0,0,0,3.861.585c.543-.022.979.087,1.46.069a8.308,8.308,0,0,0,1.355.077,8.794,8.794,0,0,0,1.353.114c.473.089.919.037,1.452.141a22.372,22.372,0,0,0,3.908-.01,5.01,5.01,0,0,1-2.384,4.232A7.805,7.805,0,0,1,282.49,84.7a7.689,7.689,0,0,1-4.889-.364,7.7,7.7,0,0,1-2.094-1.358,5.013,5.013,0,0,1-1.749-4.525" transform="translate(404.494 115.95)" fill="#141414"/><path d="M290.511,76.551c1.953,1.69,3.583,3.306,5.179,4.4a5.949,5.949,0,0,0,2.114.984,2.044,2.044,0,0,0,1.4-.164,4.077,4.077,0,0,0,1.712-1.209c.758-.622,1.447-1.526,2.5-2.381a8.441,8.441,0,0,1,3.786-1.99c1.41-.342,3.2,0,3.962,1.13a3.653,3.653,0,0,0-2.733,1.415,11.128,11.128,0,0,0-1.583,2.337,22.648,22.648,0,0,1-1.819,3.063,9.687,9.687,0,0,1-3.732,2.991,7.691,7.691,0,0,1-5.392-.1,8.464,8.464,0,0,1-3.487-3.018,11.366,11.366,0,0,1-1.91-7.459" transform="translate(429.284 112.423)" fill="#141414"/><path d="M319.121,76.979a10.981,10.981,0,0,1,4.953,3.742,15.024,15.024,0,0,1,1.635,2.6c.2.471.394.944.567,1.427l.258.726c.045.107.037.032.055.047-.045.025-.079.1-.107.216l-.022.059c-.109.315-.025.32.092.585a1.119,1.119,0,0,0,1.028.221,18.561,18.561,0,0,0,2.6-1.2A6.287,6.287,0,0,1,329.5,88.7a10.629,10.629,0,0,1-3.194,3.392,19.574,19.574,0,0,1-1.9,1.209l-1.028.575-.9.481-.079-.344c-.33-1.829-.567-3.875-1.026-5.665-.072-.456-.2-.974-.285-1.316-.042-.206-.089-.409-.141-.612-.094-.406-.211-.808-.327-1.212-.149-.84-.421-1.638-.558-2.52a43.524,43.524,0,0,1-.937-5.707" transform="translate(471.639 113.77)" fill="#141414"/><path d="M153.37,168.313c.85,2.285,1.586,4.136,2.411,5.848.429.763.753,1.521,1.192,2.22l-5.1,1.514-.079-.211a11.117,11.117,0,0,0-.919-2.381,11.969,11.969,0,0,0-1.175-2.29,2.77,2.77,0,0,0-.149-.86c-.042-.111-.1-.23-.166-.369a.353.353,0,0,0-.186-.082,1.329,1.329,0,0,0-.6.05,21.909,21.909,0,0,0-2.646,1.44,10.962,10.962,0,0,1,.882-3.9,16.765,16.765,0,0,1,1.189-2.436,7.518,7.518,0,0,1,.728-1.152l1.038.595a14.007,14.007,0,0,1,2.173,1.435,19.715,19.715,0,0,1,2.084,2,17.5,17.5,0,0,1,2.069,3.211,16.548,16.548,0,0,1,1.006,3.707l.025.33,1.918,24.921L152.056,178.5a12.4,12.4,0,0,1-.632-3.325,10.131,10.131,0,0,1,1.945-6.864" transform="translate(215.716 244.902)" fill="#141414"/><path d="M140.468,168.128a6.089,6.089,0,0,1-.595,3.083,4.785,4.785,0,0,1-.649,1.011l-.83.743-1,.486a4.787,4.787,0,0,1-1.182.213,6.059,6.059,0,0,1-3.08-.644,6.081,6.081,0,0,1,.59-3.09,4.817,4.817,0,0,1,.652-1.011l.833-.736,1.006-.481a4.786,4.786,0,0,1,1.182-.211,6.089,6.089,0,0,1,3.075.637" transform="translate(196.749 247.52)" fill="#141414"/><path d="M126.827,169.669a6.845,6.845,0,0,1,.513,3.41,6.435,6.435,0,0,1-.287,1.368l-.558,1.2-.82,1.036a6.405,6.405,0,0,1-1.1.86,6.761,6.761,0,0,1-3.293,1.043,6.773,6.773,0,0,1-.52-3.415,6.6,6.6,0,0,1,.287-1.365l.565-1.194.828-1.031a6.31,6.31,0,0,1,1.1-.86,6.817,6.817,0,0,1,3.286-1.048" transform="translate(178.417 250.759)" fill="#141414"/><path d="M30.449,162.874c8.405,2.044,16.468-.322,23.862-3.722,1.853-.875,3.692-1.8,5.521-2.763l4.317-2.317,5.546-3.135,2.317-1.284-.156,1-.218,1.2-.439,2.4-.429,2.257a11.388,11.388,0,0,1-.572,2.322l-.885,2.475c-.141.414-.3.83-.491,1.254l-.558,1.038a25.252,25.252,0,0,1-1.611,2.686A62.119,62.119,0,0,1,57.624,176c-3.216,2.81-6.378,5.528-9.263,8.373a47.855,47.855,0,0,0-12.134,21.2,37.813,37.813,0,0,1,8.787-24.192,115.276,115.276,0,0,1,8.883-9.354,56.982,56.982,0,0,0,8.019-9,19.74,19.74,0,0,0,1.365-2.153c.146-.258.1-.164.126-.206l.015-.01.032-.03a.535.535,0,0,0,.126-.25l-.037,0c-.012-.037-.052-.052-.151-.037l-.463.183-.248.1-.647.285a61.853,61.853,0,0,1-6.068,2.394,42.915,42.915,0,0,1-12.912,2.545,24.238,24.238,0,0,1-12.605-2.978" transform="translate(45.002 221.178)" fill="#141414"/><path d="M21.76,174.312A17.853,17.853,0,0,1,19.852,166a22.6,22.6,0,0,1,1.9-8.6,30.566,30.566,0,0,1,4.624-7.5c.164-.206.347-.389.52-.585l.263-.29c.067-.074.022-.03.04-.05l.015-.054c0-.03-.007-.042-.032-.045a.224.224,0,0,0-.087.02.031.031,0,0,0,.017-.035l-.01-.012-.486-.176-1.018-.384a32.523,32.523,0,0,1-4.056-1.9,17.741,17.741,0,0,1-6.633-6.534c-3.122-5.36-3.125-12.142-.161-16.944a19.6,19.6,0,0,0,3.9,14.451,15.182,15.182,0,0,0,5.491,4.235,26.4,26.4,0,0,0,3.422,1.445l.909.307,1.452.458,3.994,1.155,4.475,1.355L33.793,150.3c-.763.667-1.531,1.326-2.2,2l-1.172,1.212a36.258,36.258,0,0,0-4.7,5.927,25.382,25.382,0,0,0-3.965,14.873" transform="translate(18.534 181.652)" fill="#141414"/><path d="M14.421,146.231a20.954,20.954,0,0,1,2.493-11.255,21.774,21.774,0,0,1,1.576-2.542,14.7,14.7,0,0,1,.909-1.2l.83-1,.835-1.075.015-.047a.2.2,0,0,0,.025-.087l-.007-.007-.3.03-.575.055c-.733.067-1.363.126-1.94.2l-1.46.092a13.755,13.755,0,0,1-3.382-.23,7.074,7.074,0,0,1-3.94-2.411,7.574,7.574,0,0,1-1.534-4.136,10.976,10.976,0,0,1,.394-3.734,13.2,13.2,0,0,1,1.4-3.268,12.72,12.72,0,0,1,1.051-1.484c.359-.429.7-.808,1.056-1.179,1.447-1.43,2.847-2.622,3.947-3.826a4.974,4.974,0,0,0,.392-.357,2.592,2.592,0,0,0,.2-.25l.1-.161-.082-.04a3.192,3.192,0,0,1-.555-.24s-.32-.112-.575-.2-.5-.218-.746-.325a10.409,10.409,0,0,1-1.43-.743,15.249,15.249,0,0,1-4.589-4.215,12.871,12.871,0,0,1-2.166-11.3,13.18,13.18,0,0,0,4.309,9.463,13.623,13.623,0,0,0,4.155,2.7,7.225,7.225,0,0,0,1.132.4c.191.052.374.126.567.161s.33.052.781.161a9.223,9.223,0,0,0,1.269.151l1.442,0,2.86-.022a14.472,14.472,0,0,1-3.209,8.085c-1.318,1.65-2.713,2.969-3.814,4.277-.282.312-.558.637-.79.932a7.6,7.6,0,0,0-.545.82,7.715,7.715,0,0,0-.746,1.9,3.469,3.469,0,0,0,.225,2.862,1.277,1.277,0,0,0,.741.473,9.163,9.163,0,0,0,2.2.159l9.766,0,8.66.114,2.072.032,1,.02.24.064.211.072a.4.4,0,0,0,.111.037l.548.042,2.047.2-3.122,1.189c-4.9,1.891-8.068,3.06-10.806,4.232l-2.669,1.472c-.706.478-1.241.944-1.853,1.4l-.431.337-.243.216-.488.431a12.956,12.956,0,0,0-.947.9,23.33,23.33,0,0,0-1.764,1.96,25.161,25.161,0,0,0-4.847,9.716" transform="translate(8.621 134.917)" fill="#141414"/><path d="M51.575,76.446A24.37,24.37,0,0,1,54.521,80.9c.439.7.7,1.432,1.068,2.129q.424,1.078.907,2.129c.235.731.493,1.46.773,2.181.191.766.5,1.474.647,2.29a23.765,23.765,0,0,1,.823,5.278,10.5,10.5,0,0,1-4.733-3.073,15.256,15.256,0,0,1-1.66-2.166q-.639-1.193-1.209-2.431-.409-1.3-.738-2.612a15.1,15.1,0,0,1-.235-2.718,10.55,10.55,0,0,1,1.412-5.459" transform="translate(74.123 112.982)" fill="#141414"/><path d="M72.107,78.411c1.3.1,2.022.067,2.557.092a4.321,4.321,0,0,1,.669.047c.144.067.285.124.426.173a4.124,4.124,0,0,0,.273.367,4.31,4.31,0,0,1,.2.639c.151.513.29,1.222.686,2.473A3.175,3.175,0,0,1,74.5,83.867a3.275,3.275,0,0,1-1.236-.087,9.66,9.66,0,0,1-1.056-.543,9.443,9.443,0,0,1-.768-.9,3.288,3.288,0,0,1-.374-1.182,3.178,3.178,0,0,1,1.046-2.741" transform="translate(104.99 115.886)" fill="#141414"/><path d="M77.625,169.443a89.665,89.665,0,0,0,9.783,4.636c.838.26,1.638.565,2.433.882l2.446.771,2.451.7,2.49.528,2.5.5,2.53.322,2.55.265c.852.022,1.71.062,2.58.156a91.134,91.134,0,0,0,10.821-.359,22.286,22.286,0,0,1-10.44,4.832c-.959.181-1.93.31-2.907.419l-2.941.124-2.936-.211-2.919-.421-2.845-.778-2.778-.976-2.649-1.281c-.852-.491-1.692-.994-2.5-1.539a22.378,22.378,0,0,1-7.667-8.576" transform="translate(114.724 250.425)" fill="#141414"/><path d="M108.944,172.787a15.179,15.179,0,0,1,3.989-2.884,19.62,19.62,0,0,1,1.995-.917l2.027-.677,2.086-.456a19.962,19.962,0,0,1,2.183-.225,14.962,14.962,0,0,1,4.9.458,10.266,10.266,0,0,1-3.4,3.769,14.267,14.267,0,0,1-2.057,1.194q-1.093.42-2.2.805c-.768.151-1.539.292-2.307.419a14.082,14.082,0,0,1-2.376.02,10.348,10.348,0,0,1-4.844-1.507" transform="translate(161.012 247.693)" fill="#141414"/><path d="M235.758,160.69a44.865,44.865,0,0,1,11.163-4.374c1.918-.55,3.876-.862,5.831-1.241q2.951-.394,5.915-.7,2.977-.13,5.952-.164c1.99.1,3.972.121,5.95.389a44.716,44.716,0,0,1,11.673,2.738,103.442,103.442,0,0,1-11.691,1.752c-1.92.265-3.836.344-5.746.565q-2.869.182-5.726.453-2.866.138-5.731.364c-1.92.062-3.828.248-5.766.263a105.283,105.283,0,0,1-11.822-.047" transform="translate(348.434 227.916)" fill="#141414"/><path d="M320.662,157.493a9.708,9.708,0,0,1,4.2-3.209,13.738,13.738,0,0,1,2.416-.763q1.238-.178,2.5-.285c.838.042,1.673.1,2.505.193a13.883,13.883,0,0,1,2.438.681,9.649,9.649,0,0,1,4.307,3.073,19.809,19.809,0,0,1-4.824,1.385c-.751.188-1.467.181-2.19.3-.716.02-1.427.059-2.138.116-.711-.037-1.427-.055-2.143-.052-.726-.092-1.442-.067-2.2-.225a20.034,20.034,0,0,1-4.867-1.214" transform="translate(473.916 226.472)" fill="#141414"/><path d="M195.8,81.477a37.676,37.676,0,0,1,8.777-2.579c1.467-.322,2.941-.439,4.413-.652l4.426-.33,4.438-.022c1.484.1,2.964.1,4.45.307a37.092,37.092,0,0,1,8.95,1.9,37.309,37.309,0,0,1-8.777,2.587c-1.467.325-2.941.434-4.413.649l-4.426.325-4.438.012c-1.482-.1-2.964-.1-4.45-.307a37.543,37.543,0,0,1-8.95-1.888" transform="translate(289.373 115.122)" fill="#141414"/><path d="M143.979,83.387a13.958,13.958,0,0,1,4.75-2.542,19.362,19.362,0,0,1,2.414-.634l2.436-.312,2.456,0a19.857,19.857,0,0,1,2.475.322,13.8,13.8,0,0,1,5.033,1.93,13.8,13.8,0,0,1-4.748,2.55,19.837,19.837,0,0,1-2.416.634l-2.436.3-2.456,0a19.417,19.417,0,0,1-2.475-.325,13.95,13.95,0,0,1-5.033-1.92" transform="translate(212.791 118.076)" fill="#141414"/><path d="M68.486,87.391a38.178,38.178,0,0,1,9.493-3.472c1.616-.436,3.256-.654,4.891-.952l4.939-.533,4.966-.116c1.658.089,3.313.087,4.971.315a37.7,37.7,0,0,1,9.862,2.228,55.274,55.274,0,0,1-9.761,2.26c-1.613.307-3.226.411-4.837.639l-4.832.411-4.844.206c-1.626-.012-3.239.084-4.879-.01a55.831,55.831,0,0,1-9.969-.976" transform="translate(101.218 121.662)" fill="#141414"/><path d="M46.769,95.223a6.135,6.135,0,0,1,2.753-1.539,4.957,4.957,0,0,1,1.2-.156l1.115.154,1.028.451a5.014,5.014,0,0,1,.939.766,6.1,6.1,0,0,1,1.521,2.77,6.1,6.1,0,0,1-2.755,1.546,5.066,5.066,0,0,1-1.2.156l-1.113-.161-1.026-.458a4.94,4.94,0,0,1-.937-.768,6.125,6.125,0,0,1-1.526-2.76" transform="translate(69.121 138.228)" fill="#141414"/><path d="M656.724,85.064c2.235.28,4.936.674,6.762,2.116,2.129,1.683,2.639,4.537,2.825,7.092.453,6.259.092,12.652.092,18.924q0,20.09-.007,40.18c0,3.246.007,6.495,0,9.741-.007,3.1-.5,5.015-3.162,6.837-4.557,3.1-10.526,3.216-15.834,3.316-13.5.255-27,.357-40.494.533l-21,.275c-4.225.055-11.46,1-13.986-3.4-1.115-1.94-1.088-4.376-1.053-6.549.055-3.452.278-6.906.426-10.355l.857-20.051c.28-6.507.825-13.059-.25-19.524-.528-3.169-1.321-6.291-1.9-9.453-.86-4.74-2.646-13.762,2.656-16.662,2.161-1.182,4.991-1.2,7.369-1.524,3.471-.471,6.953-.9,10.452-1.1a48.285,48.285,0,0,1,10.8.491,46.272,46.272,0,0,0,9.84.961c15.284-.716,30.26-3.536,45.6-1.849,4.748.523,4.71-6.916,0-7.434-15.358-1.687-30.31,1.194-45.6,1.849-3.43.149-6.673-.553-10.046-1.051a53.049,53.049,0,0,0-11.163-.369c-3.4.216-6.779.647-10.154,1.1-2.946.4-6.081.533-8.878,1.613-8.435,3.258-9.773,12.457-8.859,20.438.463,4.056,1.318,8.031,2.146,12.023,1.281,6.195.9,12.38.632,18.664q-.494,11.545-.989,23.092c-.263,6.083-1.544,13.42,1.472,19.053,2.9,5.4,8.787,7.127,14.518,7.449,7.34.411,14.815-.094,22.165-.191,15.467-.2,30.947-.233,46.412-.617,5.927-.146,12.095-.679,17.39-3.586a16.826,16.826,0,0,0,6.425-5.88c1.695-2.874,1.635-6.093,1.638-9.317q0-25.873.007-51.747c0-7.1,1.157-15.423-1.219-22.254-2.49-7.161-8.978-9.4-15.893-10.269-4.735-.592-4.691,6.847,0,7.434" transform="translate(830.26 113.959)" fill="#1c1c1c"/><path d="M574.24,163.47c-4.723.062-12.645,1.075-14.627-4.549-.929-2.634-.538-5.709-.431-8.437q.234-5.992.33-11.983a435.623,435.623,0,0,0-1.655-45.708c-.382-4.21-1.308-9.661,1.2-13.44,1.261-1.906,3.095-2.488,5.261-2.857,3.605-.617,7.288-1.031,10.928-1.373a64.076,64.076,0,0,1,10.249-.3c3.5.233,6.918,1.179,10.42,1.447,7.4.567,15.217-1.038,22.6-1.673,8.368-.719,16.825-1.16,25.2-.273,3.1.327,7.149.716,9.143,3.457,1.92,2.639,1.744,6.5,1.754,9.59.017,4.782,7.451,4.795,7.434,0-.025-7.072-1.155-14.612-8.152-18.1-6.834-3.41-16.022-3.011-23.439-2.825-9,.223-17.94,1.348-26.9,2.1a46.9,46.9,0,0,1-12.09-.372,57.3,57.3,0,0,0-13.344-.724c-4.16.265-8.294.842-12.419,1.407-3.261.449-6.457.81-9.243,2.713-4.928,3.37-6.43,9.446-6.443,15.108-.015,8,1.269,16.1,1.643,24.11q.617,13.24.443,26.5c-.062,5.1-.287,10.2-.434,15.3-.1,3.655.055,7.54,1.821,10.841,4.079,7.612,13.25,7.563,20.758,7.464,4.78-.059,4.792-7.493,0-7.434" transform="translate(812.873 98.029)" fill="#1c1c1c"/><path d="M573.261,95.054c11.054-1.482,22.2-1.207,33.328-1.048l33.868.476c4.785.069,4.787-7.364,0-7.434l-33.868-.476c-11.123-.159-22.274-.434-33.328,1.048-2,.27-3.695,1.517-3.717,3.717-.02,1.8,1.727,3.985,3.717,3.717" transform="translate(841.746 127.757)" fill="#1c1c1c"/><path d="M575.139,102.975q30.72-1.108,61.453.191c4.782.2,4.773-7.233,0-7.434q-30.713-1.3-61.453-.191c-4.77.171-4.792,7.607,0,7.434" transform="translate(844.715 140.45)" fill="#1c1c1c"/><path d="M574.873,111.859c11.069-4.386,21.6-3.132,33-1.115,5.883,1.041,11.607.166,17.5-.424l17.7-1.777c4.715-.473,4.765-7.912,0-7.434q-9.441.948-18.884,1.893c-2.775.28-5.558.634-8.341.815a34.733,34.733,0,0,1-9.3-.909c-11.277-2.235-22.8-2.515-33.653,1.782-4.393,1.742-2.478,8.935,1.977,7.169" transform="translate(843.026 149.401)" fill="#1c1c1c"/><path d="M575.159,119.28c11.7.471,23.109.486,34.646-1.735a49.475,49.475,0,0,1,16.117-.28c5.585.716,10.925,1.313,16.513.221,4.691-.917,2.7-8.083-1.978-7.169-5.194,1.016-10.479.007-15.656-.629a50.571,50.571,0,0,0-15.807.463c-11.319,2.106-22.361,2.156-33.836,1.695-4.785-.193-4.775,7.243,0,7.434" transform="translate(844.747 161.505)" fill="#1c1c1c"/></g></g></g></svg>